<svg xmlns="http://www.w3.org/2000/svg" xmlns:xlink="http://www.w3.org/1999/xlink" width="33" height="33" viewBox="0 0 33 33">
  <defs>
    <clipPath id="clip-path">
      <rect id="Rectangle_8018" data-name="Rectangle 8018" width="18" height="19" transform="translate(0.306 -0.386)" fill="#1455cb"/>
    </clipPath>
  </defs>
  <g id="Group_5960" data-name="Group 5960" transform="translate(-1401 -9069.945)">
    <circle id="Ellipse_174" data-name="Ellipse 174" cx="16.5" cy="16.5" r="16.5" transform="translate(1401 9069.945)" fill="#fff"/>
    <g id="Group_5955" data-name="Group 5955" transform="translate(1408.693 9077.331)">
      <g id="Group_5954" data-name="Group 5954" transform="translate(0.001 0)" clip-path="url(#clip-path)">
        <path id="Path_28068" data-name="Path 28068" d="M9.541,1.719c2.548,0,2.849.01,3.855.056a5.282,5.282,0,0,1,1.772.328,2.956,2.956,0,0,1,1.1.714,2.956,2.956,0,0,1,.714,1.1,5.278,5.278,0,0,1,.329,1.772c.046,1.006.056,1.308.056,3.855s-.01,2.849-.056,3.855a5.279,5.279,0,0,1-.329,1.772,3.159,3.159,0,0,1-1.811,1.811,5.28,5.28,0,0,1-1.772.329c-1.006.046-1.308.056-3.855.056s-2.849-.01-3.855-.056a5.28,5.28,0,0,1-1.772-.329,2.956,2.956,0,0,1-1.1-.714,2.956,2.956,0,0,1-.714-1.1A5.279,5.279,0,0,1,1.775,13.4c-.046-1.006-.056-1.308-.056-3.855s.01-2.849.056-3.855A5.279,5.279,0,0,1,2.1,3.914a2.957,2.957,0,0,1,.714-1.1,2.956,2.956,0,0,1,1.1-.714,5.282,5.282,0,0,1,1.772-.328c1.006-.046,1.308-.056,3.855-.056M9.541,0C6.95,0,6.625.011,5.607.057A7,7,0,0,0,3.291.5,4.677,4.677,0,0,0,1.6,1.6,4.677,4.677,0,0,0,.5,3.291,7,7,0,0,0,.057,5.607C.011,6.625,0,6.95,0,9.541s.011,2.916.057,3.934A7,7,0,0,0,.5,15.791a4.677,4.677,0,0,0,1.1,1.69,4.677,4.677,0,0,0,1.69,1.1,7,7,0,0,0,2.316.444c1.018.046,1.343.057,3.934.057s2.916-.011,3.934-.057a7,7,0,0,0,2.316-.444,4.879,4.879,0,0,0,2.79-2.79,7,7,0,0,0,.443-2.316c.046-1.018.057-1.343.057-3.934s-.011-2.916-.057-3.934a7,7,0,0,0-.443-2.316,4.678,4.678,0,0,0-1.1-1.69A4.677,4.677,0,0,0,15.791.5,7,7,0,0,0,13.474.057C12.457.011,12.132,0,9.541,0m0,4.641a4.9,4.9,0,1,0,4.9,4.9,4.9,4.9,0,0,0-4.9-4.9m0,8.08a3.18,3.18,0,1,1,3.18-3.18,3.18,3.18,0,0,1-3.18,3.18m6.238-8.273A1.145,1.145,0,1,1,14.634,3.3a1.145,1.145,0,0,1,1.145,1.145" transform="translate(-0.227 -0.227)" fill="#1455cb"/>
      </g>
    </g>
  </g>
</svg>
