<svg id="Group_900" data-name="Group 900" xmlns="http://www.w3.org/2000/svg" xmlns:xlink="http://www.w3.org/1999/xlink" width="32.345" height="32.345" viewBox="0 0 32.345 32.345">
  <defs>
    <clipPath id="clip-path">
      <rect id="Rectangle_341" data-name="Rectangle 341" width="32.345" height="32.345" fill="#fff"/>
    </clipPath>
  </defs>
  <g id="Group_793" data-name="Group 793" transform="translate(0 0)" clip-path="url(#clip-path)">
    <path id="Path_772" data-name="Path 772" d="M16.019,0A16.019,16.019,0,1,0,32.039,16.019,16.037,16.037,0,0,0,16.019,0m7.827,12.9c.007.164.011.332.011.5A10.973,10.973,0,0,1,6.965,22.644a7.8,7.8,0,0,0,5.711-1.6,3.866,3.866,0,0,1-3.6-2.679,3.85,3.85,0,0,0,1.743-.066,3.861,3.861,0,0,1-3.093-3.783v-.049a3.843,3.843,0,0,0,1.748.483A3.865,3.865,0,0,1,8.274,9.8a10.96,10.96,0,0,0,7.953,4.031A3.86,3.86,0,0,1,22.8,10.313a7.734,7.734,0,0,0,2.45-.935,3.869,3.869,0,0,1-1.7,2.134A7.759,7.759,0,0,0,25.77,10.9a7.845,7.845,0,0,1-1.924,2" transform="translate(0.153 0.153)" fill="#fff"/>
  </g>
</svg>
