<svg xmlns="http://www.w3.org/2000/svg" xmlns:xlink="http://www.w3.org/1999/xlink" width="34" height="33" viewBox="0 0 34 33">
  <defs>
    <clipPath id="clip-path">
      <rect id="Rectangle_8019" data-name="Rectangle 8019" width="18.114" height="12.683" fill="none"/>
    </clipPath>
  </defs>
  <g id="Group_5959" data-name="Group 5959" transform="translate(-1371 -9175)">
    <ellipse id="Ellipse_175" data-name="Ellipse 175" cx="17" cy="16.5" rx="17" ry="16.5" transform="translate(1371 9175)" fill="#fff"/>
    <g id="Group_5957" data-name="Group 5957" transform="translate(1378.938 9184.971)">
      <g id="Group_5956" data-name="Group 5956" transform="translate(0)" clip-path="url(#clip-path)">
        <path id="Path_28069" data-name="Path 28069" d="M17.741,1.985a2.27,2.27,0,0,0-1.6-1.6A53.008,53.008,0,0,0,9.057,0,55.106,55.106,0,0,0,1.97.373a2.316,2.316,0,0,0-1.6,1.611A23.914,23.914,0,0,0,0,6.342,23.825,23.825,0,0,0,.373,10.7a2.27,2.27,0,0,0,1.6,1.6,53.122,53.122,0,0,0,7.088.388,55.1,55.1,0,0,0,7.088-.373,2.27,2.27,0,0,0,1.6-1.6,23.914,23.914,0,0,0,.373-4.357A22.708,22.708,0,0,0,17.741,1.985Z" fill="#1455cb"/>
        <path id="Path_28070" data-name="Path 28070" d="M117.747,58.874V64.3l4.715-2.716Z" transform="translate(-110.495 -55.248)" fill="#fff"/>
      </g>
    </g>
  </g>
</svg>
